# xmcd
#
# Track frame offsets:
# 150
# 20372
# 36845
# 53513
# 68691
# 86572
# 109995
# 130260
# 152441
# 171881
# 192496
# 211452
# 233688
# 257176
# 273095
# 291921
# 311675
#
# Disc length: 4424 seconds
#
# Revision: 0
# Processed by: cddbd v1.5PL3 Copyright (c) Steve Scherf et al.
# Submitted via: Audion 3.0.2 (http://www.panic.com/audion/)
#
DISCID=ec114611
DTITLE=varios - 80's
DYEAR=1900
DGENRE=
TTITLE0=1
TTITLE1=2
TTITLE2=3
TTITLE3=4
TTITLE4=5
TTITLE5=6
TTITLE6=7
TTITLE7=8
TTITLE8=9
TTITLE9=00
TTITLE10=01
TTITLE11=02
TTITLE12=03
TTITLE13=04
TTITLE14=05
TTITLE15=06
TTITLE16=07
EXTD=
EXTT0=
EXTT1=
EXTT2=
EXTT3=
EXTT4=
EXTT5=
EXTT6=
EXTT7=
EXTT8=
EXTT9=
EXTT10=
EXTT11=
EXTT12=
EXTT13=
EXTT14=
EXTT15=
EXTT16=
PLAYORDER=
